<svg xmlns="http://www.w3.org/2000/svg" version="1.1" viewBox="0 0 2000 3000" width="2000" height="3000">
<!--ITEM 1--><g><defs><clipPath id="clip-path-id-viewbox-item-1"><rect x="0.0" y="0.0" width="483.88" height="281.471"/></clipPath></defs><g transform="translate(272.0 1980.0) rotate(0.0 726.5 422.5) scale(3.0028106142018682 3.002085472393248)"><g clip-path="url(#clip-path-id-viewbox-item-1)" transform="translate(-0.0 -0.0)"><g>
	<g>
		<path fill="#142664" d="M483.88,279.971c0,0.83-0.67,1.5-1.5,1.5H1.5c-0.83,0-1.5-0.67-1.5-1.5s0.67-1.5,1.5-1.5h480.88    C483.21,278.471,483.88,279.141,483.88,279.971z"/>
	</g>
	<g>
		<path fill="#142664" d="M444.08,278.471c0,1.01-0.04,2.01-0.11,3H41.31c-0.25-0.99-0.47-1.99-0.65-3    c-0.501-2.738-0.76-5.553-0.77-8.427c-0.082-24.816,19.209-45.857,43.947-47.828c5.815-0.463,11.406,0.129,16.663,1.585    c-4.52-9.97-7.06-21.02-7.06-32.68c0-22.41,9.3-42.65,24.25-57.07c21.57-14.28,30.98-62.88,31.52-81.23c0-1.1,0.9-2,2-2    c0.55,0,1.05,0.22,1.42,0.59c0.36,0.36,0.58,0.86,0.58,1.41v18.86c0,0.996,0.688,1.911,1.671,2.065    c1.258,0.196,2.329-0.757,2.329-1.974V59.036c0-1.062,0.777-2.024,1.835-2.108c0.615-0.049,1.179,0.178,1.585,0.574    c0.36,0.36,0.58,0.86,0.58,1.42V69.14c0,1,0.689,1.923,1.676,2.076c1.256,0.195,2.324-0.77,2.324-1.975v-18.44c0-1.11,0.9-2,2-2    c0.55,0,1.05,0.22,1.42,0.58c0.36,0.36,0.58,0.86,0.58,1.42V78.31c0,1,0.689,1.922,1.676,2.076    c1.256,0.195,2.324-0.77,2.324-1.975V39.372c0-1.06,0.776-2.018,1.832-2.104c0.616-0.05,1.181,0.176,1.589,0.583    c0.36,0.36,0.58,0.86,0.58,1.41c1.71,42.05,17.52,86.37,34.4,68.55c6.13-10.17,13.05-27.8,17.03-49.57    c0.89-4.81,1.63-9.82,2.19-15c0.88-8.32,1.31-17.07,1.09-26.1c0.229-2.52,3.91-2.52,4.14,0c0.123,8.901,0.816,17.188,1.964,24.887    c0.104,0.7,0.71,1.213,1.417,1.213l0,0c0.789,0,1.428-0.639,1.428-1.428V28.781c0-0.56,0.23-1.06,0.59-1.42    c0.398-0.398,0.966-0.624,1.584-0.573c1.055,0.088,1.826,1.051,1.826,2.11v20.986c0,1.059,0.858,1.917,1.917,1.917    c1.331-0.1,1.109-2.332,1.109-2.857l1.194,32.307c0.001,0.005,0.002,0.009,0.003,0.014c9.843,22.698,22.786,36.77,29.677,44.506    c6.63,7.44,22.46,11.66,26.25,0.88c1.82-5.19,3.13-73.42,3.1-87.83c0-0.55,0.22-1.05,0.58-1.41    c0.392-0.402,0.949-0.627,1.569-0.585c1.06,0.073,1.851,1.021,1.851,2.083v43.66c0,0.997,0.675,1.927,1.659,2.093    c1.249,0.21,2.341-0.759,2.341-1.971v-19.63c0-0.55,0.22-1.05,0.58-1.41c0.392-0.402,0.949-0.627,1.569-0.585    c1.06,0.073,1.851,1.021,1.851,2.083v18.952c0,0.993,0.674,1.915,1.653,2.08c1.251,0.211,2.347-0.746,2.347-1.971v-30.61    c0-0.55,0.22-1.05,0.58-1.41c0.391-0.402,0.949-0.627,1.569-0.585c1.06,0.073,1.851,1.021,1.851,2.083v21.352    c0,1.205,1.069,2.171,2.324,1.975c0.988-0.154,1.676-1.077,1.676-2.077V62.721c0-0.55,0.22-1.05,0.58-1.41    c0.392-0.403,0.949-0.628,1.569-0.585c1.06,0.073,1.851,1.021,1.851,2.083v12.65c0,0.997,0.675,1.927,1.659,2.093    c1.249,0.21,2.341-0.759,2.341-1.971v-18.95c0-0.55,0.22-1.05,0.58-1.42c0.36-0.36,0.86-0.58,1.42-0.58c1.1,0,2,0.89,2,2    c2.14,18.65-4.59,75.44,16.44,85.6c26.96,8.95,46.41,34.37,46.41,64.34c0,12.36-3.33,23.94-9.11,33.92    c2.43-0.48,4.94-0.73,7.51-0.73C426.75,239.761,444.08,257.091,444.08,278.471z"/>
	</g>
	<g>
		<path fill="#00E6B3" d="M93.44,192.621c-0.829,0-1.5-0.672-1.5-1.5c0-21.641,10.902-47.226,24.819-58.245    c22.12-17.182,30.404-61.384,30.952-80.099c0.024-0.828,0.712-1.491,1.543-1.455c0.828,0.023,1.479,0.715,1.456,1.543    c-0.562,19.177-9.146,64.542-32.1,82.371c-13.268,10.507-23.67,35.058-23.67,55.885C94.94,191.949,94.269,192.621,93.44,192.621z"/>
	</g>
	<g>
		<path fill="#00E6B3" d="M249.896,132.474L249.896,132.474c1.105,0,2-0.895,2-2V2c0-1.105-0.895-2-2-2h0c-1.105,0-2,0.895-2,2    v128.474C247.896,131.579,248.792,132.474,249.896,132.474z"/>
	</g>
	<g>
		<path fill="#00E6B3" d="M245.599,227.861c-0.272,0-0.548-0.074-0.795-0.229c-10.846-6.803-15.741-17.937-13.094-29.782    c2.517-11.265,11.321-19.694,21.91-20.978c15.521-1.895,26.453,8.167,31.422,14.049c-0.125-7.37,0.528-21.412,6.434-31.517    c11.982-20.454,42.782-26.83,65.652-21.187c0.672,0.149,1.177,0.748,1.177,1.464c0,0.828-0.666,1.5-1.495,1.5    c-0.122,0-0.252-0.015-0.371-0.044c-21.333-5.279-51.246,0.784-62.375,19.781c-7.688,13.154-5.821,34.45-5.801,34.664    c0.064,0.695-0.36,1.342-1.022,1.562c-0.664,0.22-1.389-0.047-1.753-0.643c-0.116-0.191-11.867-19.042-31.508-16.651    c-9.331,1.131-17.104,8.626-19.344,18.652c-2.357,10.551,2.039,20.49,11.76,26.588c0.702,0.44,0.914,1.366,0.474,2.067    C246.586,227.612,246.098,227.861,245.599,227.861z"/>
	</g>
	<g>
		<path fill="#00E6B3" d="M434.288,253.615c-0.487,0-0.964-0.236-1.252-0.673c-0.046-0.069-4.218-6.184-14.508-9.751    c-10.946-3.793-23.76-2.836-27.979,2.095c-0.539,0.63-1.486,0.704-2.115,0.164c-0.629-0.539-0.703-1.485-0.164-2.115    c5.706-6.665,20.365-6.748,31.241-2.978c11.328,3.927,15.844,10.65,16.031,10.935c0.455,0.692,0.262,1.622-0.431,2.077    C434.856,253.536,434.57,253.615,434.288,253.615z"/>
	</g>
	<g>
		<path fill="#00E6B3" d="M43.968,251.089c-0.225,0-0.453-0.051-0.668-0.157c-0.741-0.37-1.042-1.271-0.673-2.012    c6.589-13.219,14.198-20.217,28.073-25.819c0.769-0.31,1.642,0.062,1.953,0.829c0.31,0.768-0.062,1.643-0.83,1.952    c-13.274,5.36-20.212,11.739-26.512,24.376C45.049,250.785,44.519,251.089,43.968,251.089z"/>
	</g>
	<g>
		<path fill="#00E6B3" d="M118.63,275.005c-0.516,0-1.019-0.267-1.297-0.745c-4.496-7.713-4.623-15.531-0.349-21.449    c4.2-5.814,11.815-8.715,18.951-7.208c5.558,1.172,9.938,4.834,12.555,10.333c1.628-3.377,4.846-5.762,8.139-6.422    c4.372-0.878,10.262,1.142,12.477,9.714c0.208,0.802-0.275,1.62-1.077,1.827c-0.8,0.206-1.62-0.274-1.827-1.077    c-1.434-5.551-4.792-8.359-8.982-7.522c-3.789,0.76-7.443,4.605-6.739,9.494c0.115,0.801-0.425,1.549-1.222,1.69    c-0.799,0.139-1.562-0.373-1.73-1.164c-2.205-10.352-8.597-13.176-12.211-13.938c-5.899-1.245-12.438,1.234-15.9,6.029    c-3.6,4.984-3.419,11.442,0.508,18.183c0.417,0.716,0.175,1.634-0.541,2.051C119.146,274.94,118.886,275.005,118.63,275.005z"/>
	</g>
	<g>
		<circle fill="#142664" cx="310.079" cy="29.323" r="2"/>
	</g>
	<g>
		<circle fill="#00E6B3" cx="158.762" cy="37.518" r="2"/>
	</g>
	<g>
		<circle fill="#142664" cx="233.689" cy="6.127" r="2"/>
	</g>
	<g>
		<circle fill="#00E6B3" cx="334.03" cy="53.566" r="2"/>
	</g>
	<g>
		<path fill="#142664" d="M175.165,27.815L175.165,27.815c-1.105,0-2-0.895-2-2V11.16c0-1.105,0.895-2,2-2h0c1.105,0,2,0.895,2,2    v14.655C177.165,26.919,176.269,27.815,175.165,27.815z"/>
	</g>
	<g>
		<path fill="#00E6B3" d="M342.067,48.467L342.067,48.467c-1.105,0-2-0.895-2-2V11.812c0-1.105,0.895-2,2-2l0,0c1.105,0,2,0.895,2,2    v34.655C344.067,47.571,343.172,48.467,342.067,48.467z"/>
	</g>
</g>
</g></g></g><!--ITEM 2--><g><defs><clipPath id="clip-path-id-crop-item-2"><rect transform="scale(0.03678646934460888 0.03640449438202247)" x="0.0" y="0.0" width="473.0" height="718.0"/></clipPath><clipPath id="clip-path-id-viewbox-item-2"><rect x="0.0" y="0.0" width="17.4" height="32.4"/></clipPath></defs><g clip-path="url(#clip-path-id-crop-item-2)" transform="translate(465.0 160.0) rotate(-90.0000000000001 236.5 445.0) scale(27.183908045977013 27.469135802469136)"><g clip-path="url(#clip-path-id-viewbox-item-2)" transform="translate(-0.0 -0.0)"><g>
	<g>
		<path style="fill:#00E6B3;" d="M4,0.1c-2.2,0-4,1.8-4,4c0,7.4,0,17,0,24.3c0,2.2,1.8,4,4,4c3.3,0,6.1,0,9.4,0c2.2,0,4-1.8,4-4    c0-5.2,0-8.3,0-13.1c0-1.8-1.5-3.3-3.3-3.3l0,0c-1.8,0-3.3-1.5-3.3-3.3V4c0-1.1-0.4-2.1-1.2-2.8C8.8,0.4,7.8,0,6.8,0    C5.4,0.1,5.6,0.1,4,0.1z"/>
	</g>
</g>
</g></g></g><!--ITEM 3--><g><defs><clipPath id="clip-path-id-viewbox-item-3"><rect x="0.0" y="0.0" width="135.461" height="691.298"/></clipPath></defs><g transform="translate(855.0 218.0) rotate(0.0 170.0 866.0) scale(2.5099475125681927 2.505431810883295)"><g clip-path="url(#clip-path-id-viewbox-item-3)" transform="translate(-0.0 -0.0)"><g>
	<g>
		<path fill="#142664" d="M61.222,643.557h13.026v31.896c0,1.585-1.285,2.87-2.87,2.87h-7.286c-1.585,0-2.87-1.285-2.87-2.87    V643.557z"/>
	</g>
	<g>
		<path fill="#142664" d="M35.204,650.464h65.062V288.528c-21.687-0.089-43.374-0.931-65.062-2.98V650.464z"/>
	</g>
	<g>
		<path fill="#FFFFFF" d="M95.481,650.466H39.985c0,0,0-0.005,0.005-0.019c0.186-0.732,6.123-24.376,6.3-52.487    c0.014-2.478,0.057-4.903,0.12-7.275c1.062-41.543,8.667-66.569,10.911-77.853c0.033-0.163,0.062-0.344,0.096-0.545    c0.053-0.325,0.1-0.699,0.144-1.119c1.732-15.284,1.52-63.674,4.444-108.003c0.133-2.013,1.802-3.577,3.819-3.577h3.748    c2.02,0,3.69,1.568,3.819,3.585c2.834,44.319,2.515,92.666,4.48,107.995c0.053,0.421,0.11,0.794,0.167,1.119    c0.038,0.201,0.072,0.383,0.11,0.545c2.54,11.303,10.002,30.111,10.92,77.853c0.043,2.291,0.072,4.649,0.086,7.074    c0.148,28.193,6.137,51.956,6.324,52.688C95.481,650.461,95.481,650.466,95.481,650.466z"/>
	</g>
	<g>
		<path fill="#FFFFFF" d="M85.752,547.186c-12.791,1.028-24.61,1-35.458-0.077c2.593-16.459,5.721-27.7,7.027-34.277    c0.033-0.163,0.062-0.344,0.096-0.545c0.053-0.325,0.1-0.699,0.144-1.119h20.31c0.053,0.421,0.11,0.794,0.167,1.119    c0.038,0.201,0.072,0.383,0.11,0.545C79.711,519.782,83.131,529.573,85.752,547.186z"/>
	</g>
	<g>
		<path fill="#00E6B3" d="M95.481,650.466H39.985c0,0,0-0.005,0.005-0.019c0.186-0.732,6.123-24.376,6.3-52.487    c0.014-2.478,0.057-4.903,0.12-7.275c0.445-17.335,2.023-31.795,3.884-43.576c10.848,1.076,22.668,1.105,35.458,0.077    c1.636,11.025,2.961,25.117,3.315,43.499c0.043,2.291,0.072,4.649,0.086,7.074c0.148,28.193,6.137,51.956,6.324,52.688    C95.481,650.461,95.481,650.466,95.481,650.466z"/>
	</g>
	<g>
		<path fill="#FFFFFF" d="M35.204,106.946v178.602c21.687,2.049,43.374,2.891,65.062,2.98V106.946H35.204z"/>
	</g>
	<g>
		<polygon fill="#142664" points="36.704,569.965 33.704,569.965 33.704,105.446 101.766,105.446 101.766,568.62 98.766,568.62     98.766,108.446 36.704,108.446   "/>
	</g>
	<g>
		<path fill="#142664" d="M38.935,691.297h-9.432c-1.096,0-2.096-0.624-2.578-1.609L1.008,636.719    c-1.22-2.493-1.337-5.382-0.324-7.966l33.087-84.385l7.577,11.762c0.299,0.463,0.457,1.003,0.457,1.554v130.743    C41.805,690.012,40.52,691.297,38.935,691.297z"/>
	</g>
	<g>
		<path fill="#142664" d="M96.526,691.298h9.432c1.096,0,2.096-0.624,2.578-1.609l25.917-52.969c1.22-2.492,1.337-5.382,0.324-7.966    L101.69,544.37l-7.577,11.762c-0.299,0.463-0.457,1.003-0.457,1.554v130.743C93.656,690.013,94.941,691.298,96.526,691.298z"/>
	</g>
	<g>
		<path fill="#FFFFFF" d="M101.594,183.848H33.876c-3.106,0-5.623-2.518-5.623-5.623V55.332C28.252,44.2,52.058,5.21,67.735,1.5    c14.796,3.22,39.482,42.07,39.482,53.832v122.893C107.217,181.331,104.7,183.848,101.594,183.848z"/>
	</g>
	<g>
		<path fill="#142664" d="M107.217,134.518c-0.829,0-1.5-0.672-1.5-1.5v-10.92c0-0.828,0.671-1.5,1.5-1.5s1.5,0.672,1.5,1.5v10.92    C108.717,133.846,108.046,134.518,107.217,134.518z"/>
	</g>
	<g>
		<path fill="#142664" d="M107.217,144.865c-0.829,0-1.5-0.672-1.5-1.5v-2.007c0-0.828,0.671-1.5,1.5-1.5s1.5,0.672,1.5,1.5v2.007    C108.717,144.193,108.046,144.865,107.217,144.865z"/>
	</g>
	<g>
		<path fill="#142664" d="M107.217,114.042c-0.829,0-1.5-0.672-1.5-1.5V94.249c0-0.829,0.671-1.5,1.5-1.5s1.5,0.671,1.5,1.5v18.293    C108.717,113.37,108.046,114.042,107.217,114.042z"/>
	</g>
	<g>
		<path fill="#142664" d="M50.518,185.384c-0.829,0-1.5-0.672-1.5-1.5v-22.662c0-0.828,0.671-1.5,1.5-1.5s1.5,0.672,1.5,1.5v22.662    C52.018,184.712,51.347,185.384,50.518,185.384z"/>
	</g>
	<g>
		<path fill="#142664" d="M41.138,184.788c-0.829,0-1.5-0.672-1.5-1.5v-37.962c0-0.828,0.671-1.5,1.5-1.5s1.5,0.672,1.5,1.5v37.962    C42.638,184.116,41.967,184.788,41.138,184.788z"/>
	</g>
	<g>
		<path fill="#142664" d="M84.118,185.349H33.875c-3.928,0-7.123-3.196-7.123-7.124V55.332C26.752,37.75,54.712,0,67.735,0    s40.982,37.75,40.982,55.333v27.227c0,0.829-0.671,1.5-1.5,1.5s-1.5-0.671-1.5-1.5V55.332C105.717,38.301,78.046,3,67.735,3    S29.752,38.301,29.752,55.332v122.892c0,2.274,1.85,4.124,4.123,4.124h50.242c0.829,0,1.5,0.672,1.5,1.5    S84.946,185.349,84.118,185.349z"/>
	</g>
	<g>
		<path fill="#142664" d="M107.723,227.807v89.158c0,2.209-1.791,4-4,4H31.748c-2.209,0-4-1.791-4-4v-89.158c0-2.209,1.791-4,4-4    h71.975C105.932,223.807,107.723,225.597,107.723,227.807z"/>
	</g>
	<g>
		<path fill="#142664" d="M80.954,651.967c-0.829,0-1.5-0.672-1.5-1.5V633.29c0-0.828,0.671-1.5,1.5-1.5s1.5,0.672,1.5,1.5v17.177    C82.454,651.295,81.782,651.967,80.954,651.967z"/>
	</g>
	<g>
		<path fill="#142664" d="M54.207,651.967c-0.829,0-1.5-0.672-1.5-1.5V633.29c0-0.828,0.671-1.5,1.5-1.5s1.5,0.672,1.5,1.5v17.177    C55.707,651.295,55.036,651.967,54.207,651.967z"/>
	</g>
	<g>
		<circle fill="#142664" cx="41.138" cy="134.812" r="1.5"/>
	</g>
	<g>
		<circle fill="#142664" cx="41.138" cy="125.047" r="1.5"/>
	</g>
	<g>
		<g>
			<path fill="#FF2E93" d="M45.425,309.128c-0.335,0-0.622,0.143-0.861,0.335c-0.239,0.239-0.335,0.526-0.335,0.861v3.013     c0,0.335,0.143,0.622,0.335,0.861c0.239,0.239,0.526,0.335,0.861,0.335h3.013c0.335,0,0.622-0.143,0.861-0.335     c0.239-0.239,0.335-0.526,0.335-0.861v-3.013c0-0.335-0.143-0.622-0.335-0.861c-0.239-0.239-0.526-0.335-0.861-0.335H45.425z"/>
		</g>
		<g>
			<path fill="#FF2E93" d="M45.425,279.615c-0.335,0-0.622,0.143-0.861,0.335c-0.239,0.239-0.335,0.526-0.335,0.861v3.013     c0,0.335,0.143,0.622,0.335,0.861c0.239,0.239,0.526,0.335,0.861,0.335h3.013c0.335,0,0.622-0.143,0.861-0.335     c0.239-0.239,0.335-0.526,0.335-0.861v-3.013c0-0.335-0.143-0.622-0.335-0.861c-0.239-0.239-0.526-0.335-0.861-0.335H45.425z"/>
		</g>
		<g>
			<path fill="#FF2E93" d="M45.425,294.395c-0.335,0-0.622,0.143-0.861,0.335c-0.239,0.239-0.335,0.526-0.335,0.861v3.013     c0,0.335,0.143,0.622,0.335,0.861c0.239,0.239,0.526,0.335,0.861,0.335h3.013c0.335,0,0.622-0.143,0.861-0.335     c0.239-0.239,0.335-0.526,0.335-0.861v-3.013c0-0.335-0.143-0.622-0.335-0.861c-0.239-0.239-0.526-0.335-0.861-0.335H45.425z"/>
		</g>
		<g>
			<path fill="#FF2E93" d="M45.425,264.882c-0.335,0-0.622,0.143-0.861,0.335c-0.239,0.239-0.335,0.526-0.335,0.861v3.013     c0,0.335,0.143,0.622,0.335,0.861c0.239,0.239,0.526,0.335,0.861,0.335h3.013c0.335,0,0.622-0.143,0.861-0.335     c0.239-0.239,0.335-0.526,0.335-0.861v-3.013c0-0.335-0.143-0.622-0.335-0.861c-0.239-0.239-0.526-0.335-0.861-0.335H45.425z"/>
		</g>
		<g>
			<path fill="#FF2E93" d="M45.425,242.783c-0.335,0-0.622,0.143-0.861,0.335c-0.239,0.239-0.335,0.526-0.335,0.861v3.013     c0,0.335,0.143,0.622,0.335,0.861c0.239,0.239,0.526,0.335,0.861,0.335h3.013c0.335,0,0.622-0.143,0.861-0.335     c0.239-0.239,0.335-0.526,0.335-0.861v-3.013c0-0.335-0.143-0.622-0.335-0.861c-0.239-0.239-0.526-0.335-0.861-0.335H45.425z"/>
		</g>
		<g>
			<path fill="#FFFFFF" d="M45.425,235.369c-0.335,0-0.622,0.143-0.861,0.335c-0.239,0.239-0.335,0.526-0.335,0.861v3.013     c0,0.335,0.143,0.622,0.335,0.861c0.239,0.239,0.526,0.335,0.861,0.335h3.013c0.335,0,0.622-0.143,0.861-0.335     c0.239-0.239,0.335-0.526,0.335-0.861v-3.013c0-0.335-0.143-0.622-0.335-0.861c-0.239-0.239-0.526-0.335-0.861-0.335H45.425z"/>
		</g>
		<g>
			<path fill="#FFFFFF" d="M45.425,228.003c-0.335,0-0.622,0.143-0.861,0.335c-0.239,0.239-0.335,0.526-0.335,0.861v3.061     c0,0.335,0.143,0.622,0.335,0.861c0.239,0.239,0.526,0.335,0.861,0.335h3.013c0.335,0,0.622-0.143,0.861-0.335     c0.239-0.239,0.335-0.526,0.335-0.861v-3.013c0-0.335-0.143-0.622-0.335-0.861c-0.239-0.239-0.526-0.335-0.861-0.335h-3.013     V228.003z"/>
		</g>
		<g>
			<path fill="#FF2E93" d="M45.425,301.761c-0.335,0-0.622,0.143-0.861,0.335c-0.239,0.239-0.335,0.526-0.335,0.861v3.013     c0,0.335,0.143,0.622,0.335,0.861c0.239,0.239,0.526,0.335,0.861,0.335h3.013c0.335,0,0.622-0.143,0.861-0.335     c0.239-0.239,0.335-0.526,0.335-0.861v-3.013c0-0.335-0.143-0.622-0.335-0.861c-0.239-0.239-0.526-0.335-0.861-0.335H45.425z"/>
		</g>
		<g>
			<path fill="#FF2E93" d="M45.425,272.248c-0.335,0-0.622,0.143-0.861,0.335c-0.239,0.239-0.335,0.526-0.335,0.861v3.013     c0,0.335,0.143,0.622,0.335,0.861c0.239,0.239,0.526,0.335,0.861,0.335h3.013c0.335,0,0.622-0.143,0.861-0.335     c0.239-0.239,0.335-0.526,0.335-0.861v-3.013c0-0.335-0.143-0.622-0.335-0.861c-0.239-0.239-0.526-0.335-0.861-0.335H45.425z"/>
		</g>
		<g>
			<path fill="#FF2E93" d="M45.425,250.15c-0.335,0-0.622,0.143-0.861,0.335c-0.239,0.239-0.335,0.526-0.335,0.861v3.013     c0,0.335,0.143,0.622,0.335,0.861c0.239,0.239,0.526,0.335,0.861,0.335h3.013c0.335,0,0.622-0.143,0.861-0.335     c0.239-0.239,0.335-0.526,0.335-0.861v-3.013c0-0.335-0.143-0.622-0.335-0.861c-0.239-0.239-0.526-0.335-0.861-0.335H45.425z"/>
		</g>
		<g>
			<path fill="#FF2E93" d="M45.425,287.029c-0.335,0-0.622,0.143-0.861,0.335c-0.239,0.239-0.335,0.526-0.335,0.861v3.013     c0,0.335,0.143,0.622,0.335,0.861c0.239,0.239,0.526,0.335,0.861,0.335h3.013c0.335,0,0.622-0.143,0.861-0.335     c0.239-0.239,0.335-0.526,0.335-0.861v-3.013c0-0.335-0.143-0.622-0.335-0.861c-0.239-0.239-0.526-0.335-0.861-0.335H45.425z"/>
		</g>
		<g>
			<path fill="#FF2E93" d="M45.425,257.516c-0.335,0-0.622,0.143-0.861,0.335c-0.239,0.239-0.335,0.526-0.335,0.861v3.013     c0,0.335,0.143,0.622,0.335,0.861c0.239,0.239,0.526,0.335,0.861,0.335h3.013c0.335,0,0.622-0.143,0.861-0.335     c0.239-0.239,0.335-0.526,0.335-0.861v-3.013c0-0.335-0.143-0.622-0.335-0.861c-0.239-0.239-0.526-0.335-0.861-0.335H45.425z"/>
		</g>
	</g>
	<g>
		<path fill="#FF2E93" d="M81.998,63.606c0,6.429,0,11.542,0,16.55c0,1.818,1.483,3.3,3.3,3.3h2.81h4.604c1.818,0,3.3-1.483,3.3-3.3    c0-5.008,0-10.121,0-16.55c0-1.818-1.483-3.3-3.3-3.3h-4.604h-2.81C83.48,60.305,81.998,61.788,81.998,63.606z"/>
	</g>
	<g>
		<path fill="#FF2E93" d="M81.998,97.55c0,6.429,0,64.158,0,69.166c0,1.818,1.483,3.3,3.3,3.3h2.81h4.604c1.818,0,3.3-1.483,3.3-3.3    c0-5.008,0-62.738,0-69.166c0-1.818-1.483-3.3-3.3-3.3h-4.604h-2.81C83.48,94.249,81.998,95.732,81.998,97.55z"/>
	</g>
	<g>
		<path fill="#00E6B3" d="M107.723,269.112h-18.58c-0.829,0-1.5-0.672-1.5-1.5s0.671-1.5,1.5-1.5h18.58c0.829,0,1.5,0.672,1.5,1.5    S108.552,269.112,107.723,269.112z"/>
	</g>
	<g>
		<path fill="#00E6B3" d="M107.19,288.529c-0.17,0-0.344-0.029-0.513-0.091L74.352,276.67c-0.592-0.216-0.987-0.778-0.987-1.409    v-13.762c0-0.465,0.215-0.903,0.583-1.188l32.858-25.357c0.656-0.507,1.598-0.387,2.104,0.271    c0.506,0.655,0.385,1.598-0.271,2.104l-32.274,24.907v11.975l31.338,11.409c0.778,0.283,1.18,1.144,0.896,1.922    C108.378,288.151,107.803,288.529,107.19,288.529z"/>
	</g>
	<g>
		<path fill="#00E6B3" d="M86.402,254.098c-0.384,0-0.768-0.146-1.06-0.439l-6.453-6.448c-0.282-0.281-0.44-0.662-0.44-1.061V229.58    c0-0.828,0.671-1.5,1.5-1.5s1.5,0.672,1.5,1.5v15.947l6.013,6.01c0.586,0.585,0.586,1.535,0.001,2.121    C87.17,253.951,86.786,254.098,86.402,254.098z"/>
	</g>
	<g>
		<path fill="#00E6B3" d="M95.256,247.262c-0.829,0-1.5-0.672-1.5-1.5V229.58c0-0.828,0.671-1.5,1.5-1.5s1.5,0.672,1.5,1.5v16.182    C96.756,246.59,96.085,247.262,95.256,247.262z"/>
	</g>
	<g>
		<path fill="#00E6B3" d="M74.865,287.227c-0.829,0-1.5-0.672-1.5-1.5v-12.933c0-0.828,0.671-1.5,1.5-1.5s1.5,0.672,1.5,1.5v12.933    C76.365,286.555,75.694,287.227,74.865,287.227z"/>
	</g>
	<g>
		<path fill="#00E6B3" d="M92.329,295.205c-0.829,0-1.5-0.672-1.5-1.5v-12.05c0-0.828,0.671-1.5,1.5-1.5s1.5,0.672,1.5,1.5v12.05    C93.829,294.533,93.158,295.205,92.329,295.205z"/>
	</g>
	<g>
		<path fill="#00E6B3" d="M65.018,314.008c-0.477,0-0.946-0.227-1.237-0.649c-0.47-0.683-0.297-1.616,0.385-2.086l27.313-18.803    c0.682-0.469,1.617-0.298,2.086,0.385c0.47,0.683,0.297,1.616-0.385,2.086l-27.313,18.803    C65.607,313.922,65.311,314.008,65.018,314.008z"/>
	</g>
	<g>
		<path fill="#00E6B3" d="M107.186,308.665H72.78c-0.829,0-1.5-0.672-1.5-1.5s0.671-1.5,1.5-1.5h34.407c0.829,0,1.5,0.672,1.5,1.5    S108.015,308.665,107.186,308.665z"/>
	</g>
	<g>
		<circle fill="#FFFFFF" cx="67.733" cy="358.053" r="5.312"/>
	</g>
	<g>
		<path fill="#FF2E93" d="M70.197,590.953v59.514H65.27v-59.514c0-1.359,1.105-2.463,2.464-2.463c0.679,0,1.296,0.277,1.741,0.722    C69.924,589.656,70.197,590.273,70.197,590.953z"/>
	</g>
	<g>
		<path fill="#00E6B3" d="M65.182,26.921c-5.227,6.965-8.914,13.288-11.666,23.115c-0.295,1.054-1.482,1.606-2.576,1.606h-5.728    c-2.037,0-3.231-1.994-2.66-3.95C45.594,37.27,53.025,26.49,60.942,17.49c0.512-0.582,1.48-1.125,2.254-1.125h0    C67.166,16.365,67.565,23.746,65.182,26.921z"/>
	</g>
	<g>
		<path fill="#FFFFFF" d="M69.697,391.886H65.77c-1.849,0-3.348-1.499-3.348-3.348v-13.463c0-1.849,1.499-3.348,3.348-3.348h3.927    c1.849,0,3.348,1.499,3.348,3.348v13.463C73.045,390.387,71.546,391.886,69.697,391.886z"/>
	</g>
	<g>
		<circle fill="#00E6B3" cx="82.79" cy="267.612" r="1.5"/>
	</g>
</g>
</g></g></g><!--ITEM 4--><g><defs><clipPath id="clip-path-id-crop-item-4"><rect transform="scale(0.15435835351089588 0.16)" x="0.0" y="0.0" width="570.0" height="15.0"/></clipPath><clipPath id="clip-path-id-viewbox-item-4"><rect x="0.0" y="0.0" width="127.5" height="3.2"/></clipPath></defs><g clip-path="url(#clip-path-id-crop-item-4)" transform="translate(1072.0 1040.0) rotate(0.0 413.0 10.0) scale(6.47843137254902 6.25)"><g clip-path="url(#clip-path-id-viewbox-item-4)" transform="translate(-0.0 -0.0)"><g>
	<path d="M125.9,3.2H1.6C0.7,3.2,0,2.5,0,1.6S0.7,0,1.6,0h124.3c0.9,0,1.6,0.7,1.6,1.6S126.8,3.2,125.9,3.2z" style="fill:#142664;"/>
</g>
</g></g></g><!--ITEM 5--><g><defs><clipPath id="clip-path-id-viewbox-item-5"><rect x="0.0" y="0.0" width="18.967" height="125.782"/></clipPath></defs><g transform="translate(1578.0 620.0) rotate(0.0 32.0 229.0) scale(3.3742816470712294 3.641220524399358)"><g clip-path="url(#clip-path-id-viewbox-item-5)" transform="translate(-0.0 -0.0)"><g>
	<path d="M3.836,112.942c-1.104,0-2-0.896-2-2V3.836c0-1.104,0.896-2,2-2s2,0.896,2,2v107.105   C5.836,112.046,4.941,112.942,3.836,112.942z" style="fill:#142664;"/>
	<path d="M15.13,125.782c-1.104,0-2-0.896-2-2V51.95c0-1.104,0.896-2,2-2s2,0.896,2,2v71.832   C17.13,124.886,16.235,125.782,15.13,125.782z" style="fill:#142664;"/>
	<circle cx="3.836" cy="3.836" r="3.836" style="fill:#142664;"/>
	<circle cx="15.13" cy="51.95" r="3.836" style="fill:#142664;"/>
</g>
</g></g></g><!--ITEM 6--><g><defs><clipPath id="clip-path-id-viewbox-item-6"><rect x="0.0" y="0.0" width="184.886" height="118.059"/></clipPath></defs><g transform="translate(1338.0 920.0) rotate(0.0 206.0 134.0) scale(2.228400203368562 2.270051414970481)"><g clip-path="url(#clip-path-id-viewbox-item-6)" transform="translate(-0.0 -0.0)"><g>
	<g>
		<g>
			<path fill="#142664" d="M178.685,118.059H6.178c-3.412,0-6.178-2.766-6.178-6.178V6.178C0,2.766,2.766,0,6.178,0h172.506     c3.412,0,6.178,2.766,6.178,6.178V111.88C184.863,115.293,182.097,118.059,178.685,118.059z"/>
		</g>
	</g>
	<g>
		<g>
			<path fill="#FF2E93" d="M162.223,106.253H22.64c-4.119,0-7.458-3.339-7.458-7.458v-79.53c0-4.119,3.339-7.458,7.458-7.458     h139.583c4.119,0,7.458,3.339,7.458,7.458v79.53C169.681,102.914,166.342,106.253,162.223,106.253z"/>
		</g>
	</g>
	<g>
		<g>
			<path fill="#00E6B3" d="M126.084,13.828H98.275c-1.116,0-2.022-0.905-2.022-2.022s0.905-2.022,2.022-2.022h27.809     c1.116,0,2.022,0.905,2.022,2.022S127.2,13.828,126.084,13.828z"/>
		</g>
	</g>
	<g>
		<g>
			<path fill="#00E6B3" d="M68.987,13.828H36.642c-1.116,0-2.022-0.905-2.022-2.022s0.905-2.022,2.022-2.022h32.345     c1.116,0,2.022,0.905,2.022,2.022S70.103,13.828,68.987,13.828z"/>
		</g>
	</g>
	<g>
		<path fill="#FFFFFF" d="M44.86,78.999c-1.46,0-2.84-0.187-4.142-0.56c-1.302-0.373-2.508-0.9-3.619-1.58    c-1.111-0.68-2.106-1.484-2.985-2.413c-0.879-0.929-1.629-1.944-2.251-3.047c-0.622-1.103-1.099-2.276-1.43-3.52    c-0.332-1.244-0.498-2.512-0.498-3.806V52.407c0-1.31,0.166-2.587,0.498-3.831c0.331-1.244,0.808-2.417,1.43-3.52    s1.372-2.119,2.251-3.047c0.879-0.929,1.874-1.729,2.985-2.401c1.111-0.672,2.318-1.194,3.619-1.567    c1.302-0.373,2.682-0.56,4.142-0.56h5.821c2.189,0,4.196,0.41,6.02,1.231c1.824,0.821,3.396,1.919,4.714,3.296    c1.318,1.377,2.346,2.964,3.085,4.764c0.738,1.799,1.107,3.678,1.107,5.634v11.667c0,1.294-0.166,2.562-0.498,3.806    c-0.332,1.244-0.808,2.417-1.43,3.52c-0.622,1.103-1.373,2.118-2.251,3.047c-0.879,0.929-1.874,1.733-2.985,2.413    c-1.111,0.68-2.318,1.206-3.619,1.58c-1.302,0.373-2.683,0.56-4.142,0.56H44.86z M50.681,72.482c1.277,0,2.438-0.232,3.483-0.697    c1.045-0.464,1.94-1.082,2.687-1.853c0.746-0.771,1.318-1.663,1.716-2.674c0.398-1.012,0.589-2.073,0.572-3.184V52.407    c0.016-1.078-0.17-2.127-0.56-3.147c-0.39-1.02-0.954-1.924-1.692-2.711c-0.738-0.788-1.634-1.418-2.687-1.891    c-1.053-0.473-2.226-0.709-3.52-0.709H44.86c-1.294,0-2.463,0.232-3.508,0.697c-1.045,0.464-1.936,1.086-2.674,1.866    c-0.738,0.78-1.306,1.679-1.704,2.699c-0.398,1.02-0.589,2.086-0.572,3.197v11.667c0,1.277,0.211,2.434,0.634,3.47    c0.423,1.036,1.007,1.919,1.754,2.649c0.746,0.73,1.637,1.294,2.674,1.692c1.036,0.398,2.168,0.597,3.396,0.597H50.681z     M55.407,69.671c-0.365,0.249-0.759,0.414-1.182,0.498c-0.423,0.083-0.838,0.083-1.244,0c-0.406-0.083-0.788-0.245-1.144-0.485    c-0.357-0.24-0.659-0.551-0.908-0.933L39.262,51.287c-0.216-0.282-0.365-0.572-0.448-0.871c-0.083-0.299-0.124-0.605-0.124-0.92    c0-0.531,0.124-1.036,0.373-1.517c0.249-0.481,0.605-0.871,1.07-1.169c0.365-0.249,0.759-0.414,1.182-0.498    c0.423-0.083,0.837-0.087,1.244-0.012c0.406,0.075,0.788,0.228,1.144,0.46c0.356,0.232,0.659,0.539,0.908,0.92l11.667,17.513    c0.249,0.365,0.414,0.759,0.498,1.182c0.083,0.423,0.083,0.837,0,1.244c-0.083,0.406-0.241,0.788-0.473,1.144    C56.07,69.119,55.772,69.422,55.407,69.671z"/>
	</g>
	<g>
		<path fill="#FFFFFF" d="M79.49,77.798h-3.739c-0.76,0-1.377-0.676-1.377-1.51V47.284c0-0.834-0.616-1.51-1.377-1.51h-3.092    c-0.76,0-1.377-0.676-1.377-1.51v-4.072c0-0.834,0.616-1.51,1.377-1.51h9.585c0.76,0,1.377,0.676,1.377,1.51v36.096    C80.866,77.122,80.25,77.798,79.49,77.798z"/>
	</g>
	<g>
		<path fill="#FFFFFF" d="M118.922,78.999c-1.46,0-2.84-0.187-4.142-0.56c-1.302-0.373-2.508-0.9-3.619-1.58    c-1.111-0.68-2.106-1.484-2.985-2.413c-0.879-0.929-1.629-1.944-2.251-3.047c-0.622-1.103-1.099-2.276-1.43-3.52    c-0.332-1.244-0.498-2.512-0.498-3.806V52.407c0-1.31,0.166-2.587,0.498-3.831c0.331-1.244,0.808-2.417,1.43-3.52    s1.372-2.119,2.251-3.047c0.879-0.929,1.874-1.729,2.985-2.401c1.111-0.672,2.318-1.194,3.619-1.567    c1.302-0.373,2.682-0.56,4.142-0.56h5.821c2.189,0,4.196,0.41,6.02,1.231c1.824,0.821,3.396,1.919,4.714,3.296    c1.318,1.377,2.346,2.964,3.085,4.764c0.738,1.799,1.107,3.678,1.107,5.634v11.667c0,1.294-0.166,2.562-0.498,3.806    c-0.332,1.244-0.808,2.417-1.43,3.52c-0.622,1.103-1.373,2.118-2.251,3.047c-0.879,0.929-1.874,1.733-2.985,2.413    c-1.111,0.68-2.318,1.206-3.619,1.58c-1.302,0.373-2.683,0.56-4.142,0.56H118.922z M124.743,72.482    c1.277,0,2.438-0.232,3.483-0.697c1.045-0.464,1.94-1.082,2.687-1.853c0.746-0.771,1.318-1.663,1.716-2.674    c0.398-1.012,0.589-2.073,0.572-3.184V52.407c0.016-1.078-0.17-2.127-0.56-3.147c-0.39-1.02-0.954-1.924-1.692-2.711    c-0.738-0.788-1.634-1.418-2.687-1.891c-1.053-0.473-2.226-0.709-3.52-0.709h-5.821c-1.294,0-2.463,0.232-3.508,0.697    c-1.045,0.464-1.936,1.086-2.674,1.866c-0.738,0.78-1.306,1.679-1.704,2.699c-0.398,1.02-0.589,2.086-0.572,3.197v11.667    c0,1.277,0.211,2.434,0.634,3.47c0.423,1.036,1.007,1.919,1.754,2.649s1.637,1.294,2.674,1.692    c1.036,0.398,2.168,0.597,3.396,0.597H124.743z M129.469,69.671c-0.365,0.249-0.759,0.414-1.182,0.498    c-0.423,0.083-0.838,0.083-1.244,0c-0.406-0.083-0.788-0.245-1.144-0.485c-0.357-0.24-0.659-0.551-0.908-0.933l-11.667-17.463    c-0.216-0.282-0.365-0.572-0.448-0.871c-0.083-0.299-0.124-0.605-0.124-0.92c0-0.531,0.124-1.036,0.373-1.517    c0.249-0.481,0.605-0.871,1.07-1.169c0.365-0.249,0.759-0.414,1.182-0.498c0.423-0.083,0.837-0.087,1.244-0.012    c0.406,0.075,0.788,0.228,1.144,0.46c0.356,0.232,0.659,0.539,0.908,0.92l11.667,17.513c0.249,0.365,0.415,0.759,0.498,1.182    c0.083,0.423,0.083,0.837,0,1.244c-0.083,0.406-0.241,0.788-0.473,1.144C130.133,69.119,129.834,69.422,129.469,69.671z"/>
	</g>
	<g>
		<path fill="#FFFFFF" d="M153.552,77.798h-3.739c-0.76,0-1.377-0.676-1.377-1.51V47.284c0-0.834-0.616-1.51-1.377-1.51h-3.092    c-0.76,0-1.377-0.676-1.377-1.51v-4.072c0-0.834,0.616-1.51,1.377-1.51h9.585c0.76,0,1.377,0.676,1.377,1.51v36.096    C154.929,77.122,154.312,77.798,153.552,77.798z"/>
	</g>
	<g>
		<circle fill="#FFFFFF" cx="92.431" cy="48.854" r="3.157"/>
	</g>
	<g>
		<circle fill="#FFFFFF" cx="92.431" cy="67.627" r="3.157"/>
	</g>
	<g>
		<path fill="#FF2E93" d="M162.657,22.438c-0.779,0-1.553-0.328-2.098-0.968c-0.986-1.158-0.848-2.896,0.31-3.882l18.735-15.964    c1.158-0.986,2.896-0.847,3.882,0.31c0.986,1.158,0.848,2.896-0.31,3.882L164.442,21.78    C163.923,22.222,163.288,22.438,162.657,22.438z"/>
	</g>
	<g>
		<path fill="#FF2E93" d="M158.893,49.434c-0.775,0-1.545-0.325-2.09-0.959c-0.991-1.153-0.86-2.892,0.294-3.883l23.043-19.801    c1.154-0.992,2.892-0.86,3.883,0.294c0.991,1.153,0.86,2.892-0.294,3.883l-23.043,19.801    C160.167,49.216,159.528,49.434,158.893,49.434z"/>
	</g>
	<g>
		<path fill="#FF2E93" d="M158.836,72.992c-0.778,0-1.551-0.327-2.095-0.965c-0.988-1.156-0.851-2.894,0.305-3.883l23.297-19.897    c1.157-0.988,2.895-0.85,3.883,0.306c0.988,1.156,0.851,2.894-0.305,3.883l-23.297,19.898    C160.104,72.775,159.469,72.992,158.836,72.992z"/>
	</g>
	<g>
		<path fill="#142664" d="M28.442,114.816c-0.48,0-0.958-0.2-1.298-0.59c-0.624-0.717-0.55-1.804,0.167-2.428    c2.79-2.431,4.39-5.947,4.39-9.644c0-7.051-5.736-12.787-12.787-12.787c-4.755,0-9.09,2.614-11.314,6.822    c-0.444,0.84-1.486,1.162-2.326,0.717c-0.84-0.444-1.162-1.485-0.717-2.326c2.822-5.34,8.323-8.656,14.357-8.656    c8.949,0,16.229,7.281,16.229,16.229c0,4.693-2.03,9.154-5.571,12.239C29.246,114.677,28.843,114.816,28.442,114.816z"/>
	</g>
	<g>
		<path fill="#142664" d="M71.503,101.102H33.156c-0.951,0-1.721-0.77-1.721-1.721c0-0.951,0.771-1.721,1.721-1.721h36.626v-4.22    c0-0.951,0.771-1.721,1.721-1.721h9.363c0.951,0,1.721,0.77,1.721,1.721c0,0.951-0.771,1.721-1.721,1.721h-7.642v4.22    C73.224,100.331,72.453,101.102,71.503,101.102z"/>
	</g>
	<g>
		<path fill="#142664" d="M53.624,101.102c-0.951,0-1.721-0.77-1.721-1.721V87.643c0-0.951,0.771-1.721,1.721-1.721    s1.721,0.77,1.721,1.721v11.738C55.345,100.331,54.574,101.102,53.624,101.102z"/>
	</g>
	<g>
		<path fill="#142664" d="M24.239,90.376c-0.234,0-0.471-0.048-0.699-0.149c-0.868-0.387-1.259-1.404-0.873-2.272l3.587-8.062    c0.387-0.868,1.404-1.257,2.272-0.873c0.868,0.387,1.259,1.404,0.873,2.272l-3.587,8.062    C25.527,89.995,24.898,90.376,24.239,90.376z"/>
	</g>
	<g>
		<circle fill="#142664" cx="80.866" cy="93.439" r="3.267"/>
	</g>
	<g>
		<circle fill="#142664" cx="53.624" cy="87.642" r="3.267"/>
	</g>
	<g>
		<circle fill="#142664" cx="27.827" cy="79.985" r="3.267"/>
	</g>
	<g>
		<circle fill="#142664" cx="19.431" cy="101.68" r="3.267"/>
	</g>
	<g>
		<g>
			<path fill="#00E6B3" d="M162.223,108.274H22.64c-5.227,0-9.48-4.253-9.48-9.48V19.264c0-5.227,4.253-9.479,9.48-9.479h1.183     c1.116,0,2.022,0.905,2.022,2.022s-0.905,2.022-2.022,2.022H22.64c-2.998,0-5.437,2.439-5.437,5.436v79.531     c0,2.998,2.439,5.437,5.437,5.437h139.583c2.998,0,5.436-2.439,5.436-5.437c0-1.116,0.905-2.022,2.022-2.022     s2.022,0.905,2.022,2.022C171.703,104.022,167.45,108.274,162.223,108.274z"/>
		</g>
	</g>
</g>
</g></g></g><!--ITEM 7--><g><defs><clipPath id="clip-path-id-viewbox-item-7"><rect x="0.0" y="0.0" width="88.9" height="26.601"/></clipPath></defs><g transform="translate(275.0 900.0) rotate(0.0 200.0 60.0) scale(4.499437570303712 4.511108604939664)"><g clip-path="url(#clip-path-id-viewbox-item-7)" transform="translate(-0.0 -0.0)"><g>
	<path d="M88.9,13.3c0-7.4-6-13.3-13.3-13.3C58.8,0,30.1,0,13.3,0C5.9,0,0,6,0,13.3l0,0c0,7.4,6,13.3,13.3,13.3   c16.8,0,45.5,0,62.3,0C82.9,26.7,88.9,20.7,88.9,13.3L88.9,13.3z" style="fill:#00E6B3;"/>
	<path d="M76.4,17.6c-1,0.5-2,0.8-3.2,0.8c-3.7,0-6.7-3-6.7-6.7s3-6.7,6.7-6.7s6.7,3,6.7,6.7c0,1.2-0.3,2.2-0.8,3.2   l3.5,3.5c0.7,0.7,0.7,2,0,2.7s-2,0.7-2.7,0L76.4,17.6z M75.2,13.7c0.5-0.5,0.8-1.2,0.8-2c0-1.6-1.3-2.9-2.9-2.9s-2.9,1.3-2.9,2.9   c0,1.6,1.3,2.9,2.9,2.9C74,14.6,74.7,14.2,75.2,13.7L75.2,13.7L75.2,13.7L75.2,13.7z" style="fill:#142664;"/>
</g>
</g></g></g><!--ITEM 8--><g><defs><clipPath id="clip-path-id-crop-item-8"><rect transform="scale(0.27549259259259257 0.2752658662092624)" x="0.0" y="3" width="208.0" height="492"/></clipPath><clipPath id="clip-path-id-viewbox-item-8"><rect x="0.0" y="0.0" width="148.766" height="160.48"/></clipPath></defs><g clip-path="url(#clip-path-id-crop-item-8)" transform="translate(560.0 1345.0) rotate(89.99999999999989 270.0 291.5) scale(3.629861661938884 3.632851445663011)"><g clip-path="url(#clip-path-id-viewbox-item-8)" transform="translate(-0.0 -0.0)"><g>
	<g>
		<path d="M6.7,151.48V64.766l19.4-19.4h79.2c1.1,0,1.9-0.9,1.9-1.9s-0.9-1.9-1.9-1.9h-80c-0.5,0-1,0.2-1.4,0.6    l-20.6,20.6c-0.4,0.4-0.6,0.8-0.6,1.4v87.514c-1.6,0.7-2.7,2.3-2.7,4.2c0,2.5,2.1,4.6,4.6,4.6s4.6-2.1,4.6-4.6    C9.4,153.78,8.3,152.18,6.7,151.48L6.7,151.48z" style="fill:#142664;"/>
	</g>
	<g>
		<circle cx="105.4" cy="43.366" r="43.366" style="fill:#142664;"/>
	</g>
</g>
</g></g></g><!--ITEM 9--><g><defs><clipPath id="clip-path-id-viewbox-item-9"><rect x="0.0" y="0.0" width="96.706" height="53.861"/></clipPath></defs><g transform="translate(640.0 1232.0) rotate(0.0 -184.0 101.5) scale(-3.805348168676194 3.7689608436531072)"><g clip-path="url(#clip-path-id-viewbox-item-9)" transform="translate(-0.0 -0.0)"><g>
    <circle cx="25.261" cy="38.164" r="13.695" style="         fill: #142664;       "/>
    <path d="M44.062,53.861a2,2,0,0,1-1.614-3.179A21.261,21.261,0,1,0,4,38.165c0,.555.022,1.121.065,1.68a2,2,0,1,1-3.988.309C.026,39.492,0,38.823,0,38.165A25.261,25.261,0,1,1,45.679,53.04,2,2,0,0,1,44.062,53.861Z" style="         fill: #142664;       "/>
    <path d="M38.183,20.824a2,2,0,0,1-1.655-3.12L46.865,2.421a2,2,0,0,1,1.656-.88H79.688a2,2,0,0,1,0,4H49.583l-9.742,14.4A2,2,0,0,1,38.183,20.824Z" style="         fill: #142664;       "/>
    <path d="M94.706,40.165H49.972a2,2,0,0,1,0-4H94.706a2,2,0,0,1,0,4Z" style="         fill: #142664;       "/>
    <path d="M63.423,40.205A2,2,0,0,1,61.53,38.85L55.842,22.2A2,2,0,1,1,59.627,20.9l5.688,16.653a2,2,0,0,1-1.892,2.648Z" style="         fill: #142664;       "/>
    <path d="M76.473,40.205A2,2,0,0,1,74.58,38.85L68.892,22.2A2,2,0,1,1,72.677,20.9l5.688,16.653a2,2,0,0,1-1.892,2.648Z" style="         fill: #142664;       "/>
    <path d="M87.522,40.205A2,2,0,0,1,85.63,38.85l-2.844-8.326a2,2,0,0,1,3.785-1.293l2.844,8.326a2,2,0,0,1-1.893,2.648Z" style="         fill: #142664;       "/>
    <circle cx="24.409" cy="3.542" r="3.541" style="         fill: #142664;       "/>
    <circle cx="25.261" cy="38.164" r="9.718" style="         fill: #00e6b3;       "/>
    <circle cx="25.261" cy="38.164" r="5.041" style="         fill: #142664;       "/>
  </g>
</g></g></g><!--ITEM 10--><g><defs><clipPath id="clip-path-id-viewbox-item-10"><rect x="0.0" y="0.0" width="92.7" height="30.9"/></clipPath></defs><g transform="translate(368.0 632.0) rotate(0.0 197.0 64.0) scale(4.250269687162891 4.142394822006473)"><g clip-path="url(#clip-path-id-viewbox-item-10)" transform="translate(-0.0 -0.0)"><g>
	<path d="M2.9,5.8h6.4c1.6,0,2.9-1.3,2.9-2.9S10.9,0,9.3,0H2.9C1.3,0,0,1.3,0,2.9S1.3,5.8,2.9,5.8z" style="fill:#142664;"/>
	<path d="M22.5,5.8h40.6c1.6,0,2.9-1.3,2.9-2.9S64.7,0,63.1,0H22.5c-1.6,0-2.9,1.3-2.9,2.9S20.9,5.8,22.5,5.8z" style="fill:#142664;"/>
	<path d="M75.3,5.8h14.5c1.6,0,2.9-1.3,2.9-2.9S91.4,0,89.8,0H75.3c-1.6,0-2.9,1.3-2.9,2.9S73.7,5.8,75.3,5.8z" style="fill:#142664;"/>
	<path d="M2.9,18.3h86.9c1.6,0,2.9-1.3,2.9-2.9c0-1.6-1.3-2.9-2.9-2.9H2.9c-1.6,0-2.9,1.3-2.9,2.9S1.3,18.3,2.9,18.3z" style="fill:#142664;"/>
	<path d="M2.9,30.9h28.6c1.6,0,2.9-1.3,2.9-2.9c0-1.6-1.3-2.9-2.9-2.9H2.9C1.3,25.1,0,26.4,0,28S1.3,30.9,2.9,30.9z" style="fill:#142664;"/>
	<path d="M44.1,30.9h18.5c1.6,0,2.9-1.3,2.9-2.9c0-1.6-1.3-2.9-2.9-2.9H44.1c-1.6,0-2.9,1.3-2.9,2.9   S42.5,30.9,44.1,30.9z" style="fill:#142664;"/>
</g>
</g></g></g></svg>