<svg width="650" height="642" viewBox="0 0 650 642" fill="none" xmlns="http://www.w3.org/2000/svg">
<rect x="92" y="38" width="558" height="604" fill="#FFBCD9"/>
<rect width="558" height="604" fill="#FFBCD9"/>
<rect x="31" width="558" height="604" fill="#0E161E"/>
<path d="M315.4 472.6C305.533 472.6 298.733 467.933 295 458.6L192.2 189.4C194.6 188.333 197.533 187.4 201 186.6C204.467 185.8 207.533 185.4 210.2 185.4C218.467 185.4 225.4 187.4 231 191.4C236.867 195.133 241.133 200.467 243.8 207.4L313.4 401.4L305.4 423.4L309 424.6L387 207.4C389.667 200.467 393.933 195.133 399.8 191.4C405.667 187.4 412.733 185.4 421 185.4C426.333 185.4 432.467 186.733 439.4 189.4L336.6 458.6C335 463.133 332.333 466.6 328.6 469C324.867 471.4 320.467 472.6 315.4 472.6Z" fill="#FFBCD9"/>
</svg>
