<svg width="372" height="378" viewBox="0 0 372 378" fill="none" xmlns="http://www.w3.org/2000/svg">
<path d="M298.689 53.505H72.6511C61.7751 53.505 52.9261 62.348 52.9261 73.223V304.134C52.9261 315 61.7691 323.849 72.6511 323.849H298.69C309.563 323.849 318.412 315.006 318.412 304.134V73.223C318.406 62.348 309.562 53.505 298.689 53.505ZM159.48 227.897H120.53L74.6501 75.229H113.6C118.916 93.108 123.209 107.543 126.481 118.527C129.743 129.503 134.254 144.42 140.008 163.274C145.667 144.42 150.133 129.493 153.406 118.478C156.679 107.46 161.01 93.049 166.405 75.23H205.239L159.48 227.897ZM335.677 0H35.6621C16.0941 0 0.226074 15.869 0.226074 35.439V341.903C0.226074 361.476 16.0951 377.342 35.6631 377.342H335.683C355.251 377.342 371.119 361.476 371.119 341.903V35.439C371.117 15.869 355.25 0 335.677 0ZM332.381 304.122C332.381 322.694 317.268 337.813 298.69 337.813H72.6511C54.0751 337.813 38.9561 322.699 38.9561 304.122V73.223C38.9561 54.654 54.0701 39.535 72.6511 39.535H298.69C317.262 39.535 332.381 54.649 332.381 73.223V304.122Z" fill="white"/>
</svg>
